<?xml version="1.0" encoding="UTF-8"?>
<svg id="Capa_1" xmlns="http://www.w3.org/2000/svg" version="1.1" viewBox="0 0 40 40">
  <!-- Generator: Adobe Illustrator 29.4.0, SVG Export Plug-In . SVG Version: 2.1.0 Build 152)  -->
  <path d="M13.86,20.03c-.38.03-.77.26-.98.41,0,.41-.01.71-.02.82-.04.57-.26,1.47-.86,2.31-.59.85-1.88,1.63-1.88,1.63,0,0,1.36-.42,3.06-.26,1.5.14,2.97,1.04,2.97,1.04,0,0,.26-.27.47-.41s.65-.37.65-.37v-5.65c-.64.63-1.33.81-1.69.8-.39-.01-1.17-.36-1.73-.32Z"/>
  <path d="M13.4,17.87c-.2-.1-.37-.23-.5-.36,0,.77,0,1.65-.01,2.37.25-.2.62-.51.96-.59.42-.11.87.07,1.27.17.4.1.99.21,1.32.07.23-.09.63-.37.84-.52v-.96c-.21.05-.49.13-.88.26-1.53.52-2.41-.13-3-.44Z"/>
  <path d="M14.38,14.3c-.99-.47-1.25-.1-1.38.06-.18.21-.1,1.27-.1,1.27,0,0,0,.44,0,1.07.09.1,1.06,1.16,2.21,1.19,1.13.03,1.7-.27,2.17-.28v-.02s-.28-.71-.78-1.34c-.49-.64-1.39-1.59-2.12-1.93Z"/>
  <path d="M20,0C8.95,0,0,8.95,0,20s8.95,20,20,20,20-8.95,20-20S31.05,0,20,0ZM20.23,25.3s-1.71.2-3.21.91c-1.49.71-2.77,2.54-2.77,2.54l-.64-.41c-.64-.41-2.16-.96-3.73-1.03-1.57-.07-3.23.59-3.37,1.55-.14.96.47,1.36,1.08,1.46.44.07.69-.07.86-.21.38-.3.57-.21.35.13-.22.34-.98.48-.98.48,0,0-1.66.24-2.01-1.22-.34-1.46.71-2.25,1.12-2.56.42-.32.96-1.19,1.2-1.62.24-.43.99-3.68-.21-4.29-1.4-.71-1.43.7-1.43.7,0,0-.86-1.11.04-2.14.78-.88,2.01-.49,2.01-.49l-.03-2.49,2.69-2.24s-2.02.17-3.75-.53-1.93-2.92-1.64-3.78c.18-.54.38-.38.38-.38,0,0-.16.83.49,1.58.69.79,1.95.92,3.32.86,1.37-.06,5.07-.93,5.07-.93,0,0,.27.11,1.04.5.76.38,1.15.78,2.24,1.82,1.09,1.04,1.86,3.06,1.86,3.06v8.75ZM33.71,12.97c-.2.17-.45.37-.46,1.06,0,.69-.11,2.74-1.94,6.5-1.83,3.75-2.37,4.37-2.43,4.62-.06.25.13.57.59.46s.65-.24.71-.06c.05.18-.17.41-.46.56s-1.32.52-2.14,1.35-1.03,1.45-1.03,1.45c0,0-.1.03-.16.02-.05,0-.07-.07-.07-.07l-2.52-7.73c-.05-.05-.11-.08-.17-.12-1.4-.71-1.43.7-1.43.7,0,0-.86-1.11.04-2.14.26-.3.58-.45.88-.53l-1.69-5.17s-.34-.88-.76-.98c-.43-.09-.81-.07-1,.14s-.41.52-.41.52c0,0-.23-.28.03-.62.25-.34,1.1-1.2,1.82-1.55.72-.35,1.56-.28,2.01.14s.45.62.54.67l.09.05s.57-.7.93-.87c.37-.17.74-.23.91-.1s.02.27-.08.28c0,0-.36.09-.56.37-.2.28-.5,1.31-.36,1.96.14.64.93,2.88.93,2.88l2.76,8.13s1.91-3.28,2.69-6.34c.26-1,.41-1.76.49-2.36h-3.41s-1.04.1-1.55-.75c-.52-.85.4-1.78.9-2.24.5-.46,3.06-2.63,3.06-2.63,0,0,1.41,1.12,2.16,1.26.75.14.89.09,1.29-.32l.4-.41s.23.34,0,.78c-.22.44-.4.88-.6,1.05Z"/>
  <path d="M30.94,14.26c-.67-.41-2.17-1.12-2.17-1.12,0,0-1.25.69-1.56,1.16s-.42,1.3.92,1.43c1.14.11,2.9.18,3.37.18.06-.95-.15-1.41-.55-1.66Z"/>
  <path d="M11.42,23.18c.64-1.39.57-3.79.57-3.79,0,0-.1-3.48-.02-3.97.09-.49.62-1.26.62-1.26l-.91.22s-.5.49-.68,1.67c0,0,.04,4.22.02,4.79-.03.57-.16,2.13-.6,2.79s-.82,1.17-1.14,1.47c-.32.3-.87.87-.87.87l1.03-.57s1.32-.85,1.97-2.23Z"/>
</svg>